<svg height="512pt" viewBox="-51 0 512 512" width="512pt" xmlns="http://www.w3.org/2000/svg"><path d="m205.117188 0c-113.101563 0-205.117188 92.015625-205.117188 205.117188v5.667968c0 57.199219 32.792969 123.855469 97.472656 198.113282 46.886719 53.832031 93.121094 91.367187 95.066406 92.941406l12.578126 10.160156 12.574218-10.160156c1.945313-1.574219 48.175782-39.109375 95.066406-92.941406 64.679688-74.257813 97.472657-140.914063 97.472657-198.113282v-5.667968c0-113.101563-92.015625-205.117188-205.113281-205.117188zm165.089843 210.785156c0 96.664063-124.550781 213.679688-165.089843 249.203125-40.554688-35.535156-165.09375-152.542969-165.09375-249.203125v-5.667968c0-91.035157 74.058593-165.09375 165.09375-165.09375 91.03125 0 165.089843 74.058593 165.089843 165.09375zm-185.101562-14.675781h40.019531v40.023437h-40.019531zm20.519531-114.136719-121.5 110.839844 26.9375 29.527344v36.804687c0 27.585938 22.441406 50.03125 50.027344 50.03125h90.050781c27.585937 0 50.027344-22.445312 50.027344-50.03125v-37.886719l25.953125-28.445312zm45.515625 187.179688h-90.050781c-5.515625 0-10.003906-4.488282-10.003906-10.007813v-73.242187l54.539062-49.753906 55.523438 50.652343v72.34375c0 5.519531-4.488282 10.007813-10.007813 10.007813zm0 0"/></svg>